HIERARCHY
ROOT Hips
{
    OFFSET   0.000000   0.000000   0.000000
    CHANNELS 6 Xposition Yposition Zposition Zrotation Xrotation Yrotation
    JOINT Chest
    {
        OFFSET   0.000000   8.007230   0.000000
        CHANNELS 3 Zrotation Xrotation Yrotation
        JOINT Chest2
        {
            OFFSET   0.000000  22.077100   0.000000
            CHANNELS 3 Zrotation Xrotation Yrotation
            JOINT Neck
            {
                OFFSET   0.000000  23.254800  -0.000021
                CHANNELS 3 Zrotation Xrotation Yrotation
                JOINT Head
                {
                    OFFSET   0.000000  14.370000   1.956610
                    CHANNELS 3 Zrotation Xrotation Yrotation
                    End Site
                    {
                        OFFSET   0.000000  19.566000   0.000000
                    }
                }
            }
            JOINT LeftCollar
            {
                OFFSET   3.911900  19.017000  -0.467063
                CHANNELS 3 Zrotation Xrotation Yrotation
                JOINT LeftShoulder
                {
                    OFFSET  10.383700   0.000000   0.000000
                    CHANNELS 3 Zrotation Xrotation Yrotation
                    JOINT LeftElbow
                    {
                        OFFSET  26.662100   0.001529   0.000325
                        CHANNELS 3 Zrotation Xrotation Yrotation
                        JOINT LeftWrist
                        {
                            OFFSET  28.869000  -0.000011  -0.000096
                            CHANNELS 3 Zrotation Xrotation Yrotation
                            JOINT LeftFinger0
                            {
                                OFFSET   2.044650  -2.323460   3.252850
                                CHANNELS 3 Zrotation Xrotation Yrotation
                                JOINT LeftFinger01
                                {
                                    OFFSET   3.088130   0.000000   0.000000
                                    CHANNELS 3 Zrotation Xrotation Yrotation
                                    JOINT LeftFinger02
                                    {
                                        OFFSET   2.639460   0.000000   0.000000
                                        CHANNELS 3 Zrotation Xrotation Yrotation
                                        End Site
                                        {
                                            OFFSET   2.582190   0.000000   0.000000
                                        }
                                    }
                                }
                            }
                            JOINT LeftFinger1
                            {
                                OFFSET   8.364480   0.000000   3.252850
                                CHANNELS 3 Zrotation Xrotation Yrotation
                                JOINT LeftFinger11
                                {
                                    OFFSET   4.646930   0.000000   0.000000
                                    CHANNELS 3 Zrotation Xrotation Yrotation
                                    JOINT LeftFinger12
                                    {
                                        OFFSET   2.323460   0.000000   0.000000
                                        CHANNELS 3 Zrotation Xrotation Yrotation
                                        End Site
                                        {
                                            OFFSET   2.273050   0.000000   0.000000
                                        }
                                    }
                                }
                            }
                            JOINT LeftFinger2
                            {
                                OFFSET   8.364480   0.000016   1.078090
                                CHANNELS 3 Zrotation Xrotation Yrotation
                                JOINT LeftFinger21
                                {
                                    OFFSET   5.111620   0.000000   0.000000
                                    CHANNELS 3 Zrotation Xrotation Yrotation
                                    JOINT LeftFinger22
                                    {
                                        OFFSET   2.788160   0.000017   0.000000
                                        CHANNELS 3 Zrotation Xrotation Yrotation
                                        End Site
                                        {
                                            OFFSET   2.727660   0.000000   0.000000
                                        }
                                    }
                                }
                            }
                            JOINT LeftFinger3
                            {
                                OFFSET   7.899780   0.000015  -1.078090
                                CHANNELS 3 Zrotation Xrotation Yrotation
                                JOINT LeftFinger31
                                {
                                    OFFSET   4.646920   0.000000   0.000000
                                    CHANNELS 3 Zrotation Xrotation Yrotation
                                    JOINT LeftFinger32
                                    {
                                        OFFSET   2.323470   0.000000   0.000000
                                        CHANNELS 3 Zrotation Xrotation Yrotation
                                        End Site
                                        {
                                            OFFSET   2.273050   0.000000   0.000000
                                        }
                                    }
                                }
                            }
                            JOINT LeftFinger4
                            {
                                OFFSET   7.435090   0.000000  -3.252850
                                CHANNELS 3 Zrotation Xrotation Yrotation
                                JOINT LeftFinger41
                                {
                                    OFFSET   3.717550   0.000000   0.000000
                                    CHANNELS 3 Zrotation Xrotation Yrotation
                                    JOINT LeftFinger42
                                    {
                                        OFFSET   1.858760   0.000000   0.000000
                                        CHANNELS 3 Zrotation Xrotation Yrotation
                                        End Site
                                        {
                                            OFFSET   1.818440   0.000000   0.000000
                                        }
                                    }
                                }
                            }
                        }
                    }
                }
            }
            JOINT RightCollar
            {
                OFFSET  -3.911900  19.017000  -0.467062
                CHANNELS 3 Zrotation Xrotation Yrotation
                JOINT RightShoulder
                {
                    OFFSET -10.383700   0.000015   0.000000
                    CHANNELS 3 Zrotation Xrotation Yrotation
                    JOINT RightElbow
                    {
                        OFFSET -26.662100   0.001341   0.000385
                        CHANNELS 3 Zrotation Xrotation Yrotation
                        JOINT RightWrist
                        {
                            OFFSET -28.869000   0.000025  -0.000080
                            CHANNELS 3 Zrotation Xrotation Yrotation
                            JOINT RightFinger0
                            {
                                OFFSET  -2.044650  -2.323490   3.252850
                                CHANNELS 3 Zrotation Xrotation Yrotation
                                JOINT RightFinger01
                                {
                                    OFFSET  -3.088130   0.000000   0.000000
                                    CHANNELS 3 Zrotation Xrotation Yrotation
                                    JOINT RightFinger02
                                    {
                                        OFFSET  -2.639460   0.000000   0.000000
                                        CHANNELS 3 Zrotation Xrotation Yrotation
                                        End Site
                                        {
                                            OFFSET  -2.582190   0.000000   0.000000
                                        }
                                    }
                                }
                            }
                            JOINT RightFinger1
                            {
                                OFFSET  -8.364480   0.000000   3.252850
                                CHANNELS 3 Zrotation Xrotation Yrotation
                                JOINT RightFinger11
                                {
                                    OFFSET  -4.646930   0.000000   0.000000
                                    CHANNELS 3 Zrotation Xrotation Yrotation
                                    JOINT RightFinger12
                                    {
                                        OFFSET  -2.323470   0.000000   0.000000
                                        CHANNELS 3 Zrotation Xrotation Yrotation
                                        End Site
                                        {
                                            OFFSET  -2.273050   0.000000   0.000000
                                        }
                                    }
                                }
                            }
                            JOINT RightFinger2
                            {
                                OFFSET  -8.364480   0.000000   1.078090
                                CHANNELS 3 Zrotation Xrotation Yrotation
                                JOINT RightFinger21
                                {
                                    OFFSET  -5.111610   0.000000   0.000000
                                    CHANNELS 3 Zrotation Xrotation Yrotation
                                    JOINT RightFinger22
                                    {
                                        OFFSET  -2.788160   0.000000   0.000000
                                        CHANNELS 3 Zrotation Xrotation Yrotation
                                        End Site
                                        {
                                            OFFSET  -2.727660   0.000000   0.000000
                                        }
                                    }
                                }
                            }
                            JOINT RightFinger3
                            {
                                OFFSET  -7.899780   0.000000  -1.078090
                                CHANNELS 3 Zrotation Xrotation Yrotation
                                JOINT RightFinger31
                                {
                                    OFFSET  -4.646920   0.000000   0.000000
                                    CHANNELS 3 Zrotation Xrotation Yrotation
                                    JOINT RightFinger32
                                    {
                                        OFFSET  -2.323470   0.000000   0.000000
                                        CHANNELS 3 Zrotation Xrotation Yrotation
                                        End Site
                                        {
                                            OFFSET  -2.273050   0.000000   0.000000
                                        }
                                    }
                                }
                            }
                            JOINT RightFinger4
                            {
                                OFFSET  -7.435090   0.000000  -3.252850
                                CHANNELS 3 Zrotation Xrotation Yrotation
                                JOINT RightFinger41
                                {
                                    OFFSET  -3.717550   0.000000   0.000000
                                    CHANNELS 3 Zrotation Xrotation Yrotation
                                    JOINT RightFinger42
                                    {
                                        OFFSET  -1.858770   0.000000   0.000000
                                        CHANNELS 3 Zrotation Xrotation Yrotation
                                        End Site
                                        {
                                            OFFSET  -1.818440   0.000000   0.000000
                                        }
                                    }
                                }
                            }
                        }
                    }
                }
            }
        }
    }
    JOINT LeftHip
    {
        OFFSET   9.783010   0.000000   0.000000
        CHANNELS 3 Zrotation Xrotation Yrotation
        JOINT LeftKnee
        {
            OFFSET   0.000070 -41.789100   0.000028
            CHANNELS 3 Zrotation Xrotation Yrotation
            JOINT LeftAnkle
            {
                OFFSET   0.000087 -41.133200  -0.000100
                CHANNELS 3 Zrotation Xrotation Yrotation
                JOINT LeftToe
                {
                    OFFSET   0.000000  -6.358960  14.674500
                    CHANNELS 3 Zrotation Xrotation Yrotation
                    End Site
                    {
                        OFFSET   0.000000   0.000000   3.913200
                    }
                }
            }
        }
    }
    JOINT RightHip
    {
        OFFSET  -9.783020   0.000000   0.000000
        CHANNELS 3 Zrotation Xrotation Yrotation
        JOINT RightKnee
        {
            OFFSET   0.000044 -41.789100  -0.000870
            CHANNELS 3 Zrotation Xrotation Yrotation
            JOINT RightAnkle
            {
                OFFSET  -0.000090 -41.133200  -0.000245
                CHANNELS 3 Zrotation Xrotation Yrotation
                JOINT RightToe
                {
                    OFFSET   0.000000  -6.358960  14.674500
                    CHANNELS 3 Zrotation Xrotation Yrotation
                    End Site
                    {
                        OFFSET   0.000000   0.000000   3.913200
                    }
                }
            }
        }
    }
}
MOTION
Frames: 4
Frame Time:   0.016667
 -0.875722  89.456400  -1.789840   1.355740 -17.142600   1.657720   2.135540   9.072290  -0.798627   4.486680  18.106700  -1.982040  -0.271401   1.246490   0.004872  -0.446167   2.527530  -0.541274  -9.322910  -3.862990   2.685120 -52.416900   4.868830 -51.844300   1.283520  -9.620370 -70.458600   4.441110 -29.786900   5.784930  49.960800  32.693000 -65.305700   3.062280   0.023124  -0.001188   6.531130   0.007668  -0.036474 -88.996200   5.000680  -0.087483 -94.019400  -0.003863   0.000805 -70.514500   0.002692  -0.001707 -89.000000  -0.002405   0.000000 -110.029000  -0.003458  -0.006496 -80.000000   0.000700  -0.002114 -88.996100  -4.994040   0.087464 -105.800000  -0.005102  -0.003396 -79.465700  -0.002917  -0.003535 -88.984600  -9.998450   0.176308 -110.000000  -0.001608   0.000658 -80.000000  -0.001834   0.000078   7.537310   0.681352  13.037300  52.570000   3.793420  59.598300 -13.605300  -9.079470  63.231100   1.832120 -11.642200   0.994074 -55.367200  32.162200  51.991000 -11.655400  -0.104683  -0.021487 -10.827700  -0.055870   0.016725  88.996300   4.993570   0.087470  92.026900   0.000820   0.000260  69.020200   0.000388   0.001444  89.000000   0.002427  -0.001839 110.042000  -0.003636  -0.003434  79.875000  -0.003005   0.002248  88.996200  -4.996780  -0.087469 110.000000  -0.001961   0.001177  79.999900  -0.002356   0.004492  88.983700  -9.997210  -0.182016 110.000000  -0.003161  -0.000954  80.000000  -0.000657   0.003638   0.242471  17.816200  -0.100707   0.858287   3.892190   9.919740  -3.359730  -4.399630  -4.250910   0.000000   0.000000   0.000000  -1.104050  19.392900  -0.522123   0.942631   2.344830 -19.299500   0.785791  -4.654790  -1.645500   0.000000   0.000000  -0.000000
 -0.928814  89.461400  -1.866020   1.343230 -16.933200   1.635050   2.090140   9.004900  -0.795507   4.391800  17.973000  -1.967010  -0.331149   1.166500   0.004992  -0.543531   2.364980  -0.445479  -9.246650  -4.050420   2.729660 -52.295100   5.202460 -50.938100   2.068220  -9.327010 -70.733400   6.513940 -30.044800   6.414170  52.011700  33.696500 -65.330400  -0.374083   0.007212   0.010563   4.812950   0.000799  -0.012841 -88.996200   5.000690  -0.087483 -91.706600  -0.003978   0.002493 -68.780000  -0.001504  -0.001643 -89.000000  -0.002476   0.000000 -110.020000  -0.003483  -0.006627 -80.000000   0.000783  -0.002101 -88.996100  -4.994040   0.087464 -103.202000  -0.005218   0.000061 -77.514200  -0.002901  -0.003474 -88.984600  -9.998300   0.176308 -110.000000  -0.001627   0.000655 -80.000000  -0.001852   0.000072   7.623300   0.383389  13.053100  52.140100   4.058590  58.347600 -13.630100  -8.915550  63.596600   0.901001 -11.486300   0.897231 -56.536400  34.079400  56.401600  -8.561650  -0.092006  -0.013977  -9.280830  -0.048466   0.011744  88.996300   4.993390   0.087467  90.859400   0.005718   0.014443  68.144600   0.011533   0.001318  89.000000   0.002312  -0.001783 110.036000   0.009178   0.010670  80.561200   0.008977  -0.005498  88.996200  -4.996770  -0.087470 110.000000  -0.001970   0.001162  79.999900  -0.002388   0.004510  88.983700  -9.997200  -0.182051 110.000000  -0.003181  -0.000800  80.000000  -0.000530   0.003661   0.271291  17.387900  -0.125545   0.861441   4.133550   9.851530  -3.383180  -4.400510  -4.146110   0.000000   0.000000   0.000000  -1.054890  19.104900  -0.380645   0.899722   2.393580 -19.394900   0.819405  -4.635450  -1.667880  -0.000000   0.000000   0.000000
 -0.984306  89.467500  -1.948250   1.318390 -16.672200   1.575910   2.049670   8.918340  -0.788754   4.304740  17.801100  -1.940340  -0.411953   1.057290   0.005102  -0.676700   2.143090  -0.271363  -9.178610  -4.226960   2.817750 -52.207400   5.591740 -49.828500   2.962130  -8.914940 -71.006400   8.384040 -30.704100   6.806060  53.657600  34.667100 -65.419700  -3.488170  -0.008700   0.021338   3.255900  -0.003911   0.010792 -88.996200   5.000710  -0.087482 -89.737100  -0.004042   0.004168 -67.302800  -0.004151  -0.001456 -89.000000  -0.002549   0.000000 -109.955000  -0.003499  -0.006766 -80.000000   0.000870  -0.002082 -88.996100  -4.994040   0.087465 -101.128000  -0.005284   0.002343 -75.845700  -0.002845  -0.003291 -88.984600  -9.998160   0.176309 -110.000000  -0.001639   0.000651 -80.000000  -0.001870   0.000062   7.773710   0.013814  13.099200  51.554100   4.466750  56.824200 -13.698100  -8.717580  63.969300  -0.058968 -11.171300   0.869531 -57.554900  35.494500  60.773600  -5.579590  -0.069075  -0.006694  -7.789810  -0.035471   0.006243  88.996300   4.993220   0.087463  89.523400   0.015456   0.035270  67.142600   0.028804   0.000952  89.000000   0.002197  -0.001723 109.996000   0.029703   0.030108  81.247400   0.025958  -0.018062  88.996200  -4.996760  -0.087472 110.000000  -0.001976   0.001145  79.999900  -0.002422   0.004526  88.983700  -9.997200  -0.182085 110.000000  -0.003201  -0.000647  80.000000  -0.000400   0.003683   0.315222  16.902100  -0.134011   0.863432   4.370930   9.783380  -3.405160  -4.401170  -4.033700   0.000000   0.000000   0.000000  -0.989659  18.728500  -0.238323   0.850381   2.517860 -19.432600   0.876165  -4.626760  -1.754150   0.000000   0.000000   0.000000
 -1.041870  89.474500  -2.035290   1.257030 -16.341700   1.477190   2.018830   8.798410  -0.764450   4.233540  17.562900  -1.878090  -0.527838   0.899815   0.005213  -0.866982   1.823480  -0.058671  -9.108410  -4.360140   2.925400 -52.279000   6.000690 -48.432900   3.967050  -8.305730 -71.326300   9.684470 -31.701400   6.879660  53.400800  34.251800 -65.458100  -4.208920   0.022927   0.012962   2.895530   0.011612  -0.024789 -88.996200   5.000700  -0.087478 -89.404600   0.008882  -0.007890 -67.053500   0.008252   0.003349 -89.000000  -0.002622   0.000000 -109.569000  -0.003495  -0.006919 -80.152500   0.000963  -0.002076 -88.996100  -4.994040   0.087467 -100.868000   0.011220  -0.005899 -75.651200   0.006864   0.006687 -88.984600  -9.998030   0.176312 -110.000000  -0.001638   0.000655 -80.000000  -0.001881   0.000026   7.998740  -0.380257  13.191200  50.908300   4.946430  55.021500 -13.794100  -8.463270  64.302300  -0.944437 -10.427300   1.024240 -58.342400  36.417300  64.135200  -3.388700  -0.044604  -0.004007  -6.694370  -0.022539   0.001443  88.996300   4.993040   0.087463  87.953000   0.029916   0.047664  65.964800   0.042166  -0.002481  89.000000   0.002078  -0.001662 109.051000   0.048124   0.037343  81.144500   0.034388  -0.030307  88.996200  -4.996740  -0.087474 109.952000  -0.001977   0.001129  79.999900  -0.002467   0.004545  88.983700  -9.997190  -0.182119 110.000000  -0.003224  -0.000504  80.000000  -0.000264   0.003712   0.381820  16.382700  -0.124397   0.860676   4.579310   9.731920  -3.422580  -4.394490  -3.923770  -0.000000   0.000000   0.000000  -0.884466  18.222200  -0.071405   0.771049   2.722810 -19.341500   0.934512  -4.653340  -1.953740  -0.000000   0.000000   0.000000
